<svg width="40" height="40" viewBox="0 0 40 40" fill="none" xmlns="http://www.w3.org/2000/svg">
<g clip-path="url(#clip0)">
<path d="M20.1764 24.2459L37.673 5.0412L39.9829 7.14569L20.3366 28.7097L9.62646 18.5284L11.7798 16.2634L20.1764 24.2459ZM38.7695 13.0667L36.3327 15.7498C36.6864 17.1082 36.875 18.5324 36.875 20C36.875 29.3048 29.3048 36.875 20 36.875C10.6952 36.875 3.125 29.3048 3.125 20C3.125 10.6952 10.6952 3.125 20 3.125C24.3106 3.125 28.248 4.75037 31.2341 7.41943L33.3408 5.09979C29.6683 1.80359 24.9728 0 20 0C14.6579 0 9.63531 2.08038 5.85785 5.85785C2.08038 9.63531 0 14.6579 0 20C0 25.3421 2.08038 30.3647 5.85785 34.1422C9.63531 37.9196 14.6579 40 20 40C25.3421 40 30.3647 37.9196 34.1422 34.1422C37.9196 30.3647 40 25.3421 40 20C40 17.5958 39.5773 15.257 38.7695 13.0667Z" fill="url(#paint0_linear)"/>
</g>
<defs>
<linearGradient id="paint0_linear" x1="20" y1="0" x2="20" y2="40" gradientUnits="userSpaceOnUse">
<stop stop-color="#63FFFF"/>
<stop offset="1" stop-color="#A9FFFF"/>
</linearGradient>
<clipPath id="clip0">
<rect width="40" height="40" fill="white"/>
</clipPath>
</defs>
</svg>
